<?xml version="1.0" encoding="utf-8"?>
<!-- Generator: Adobe Illustrator 16.0.3, SVG Export Plug-In . SVG Version: 6.00 Build 0)  -->
<!DOCTYPE svg PUBLIC "-//W3C//DTD SVG 1.1//EN" "http://www.w3.org/Graphics/SVG/1.1/DTD/svg11.dtd">
<svg version="1.1"
	 id="svg8" xmlns:dc="http://purl.org/dc/elements/1.1/" xmlns:cc="http://creativecommons.org/ns#" xmlns:rdf="http://www.w3.org/1999/02/22-rdf-syntax-ns#" xmlns:svg="http://www.w3.org/2000/svg" xmlns:sodipodi="http://sodipodi.sourceforge.net/DTD/sodipodi-0.dtd" xmlns:inkscape="http://www.inkscape.org/namespaces/inkscape" sodipodi:docname="logo_hot_beans.svg" inkscape:version="0.92.4 (5da689c313, 2019-01-14)"
	 xmlns="http://www.w3.org/2000/svg" xmlns:xlink="http://www.w3.org/1999/xlink" x="0px" y="0px" width="328.935px"
	 height="40.027px" viewBox="107.352 208.109 328.935 40.027" enable-background="new 107.352 208.109 328.935 40.027"
	 xml:space="preserve">
<g>
	<g>
		
			<path id="path853-9_1_" inkscape:export-ydpi="300" inkscape:export-xdpi="300" inkscape:connector-curvature="0" sodipodi:nodetypes="ssssssssssssssssssssss" stroke="#000000" stroke-width="0.027" d="
			M119.823,247.878c-1.097-0.959-0.892-2.893-0.626-4.325c0.298-1.606,1.83-2.742,2.397-4.274c0.473-1.276,0.527-2.669,0.805-4.001
			c0.595-2.851,1.342-5.672,1.846-8.541c0.417-2.376,0.546-4.798,0.972-7.174c0.423-2.359,0.514-4.863,1.569-7.014
			c0.398-0.811,0.984-1.578,1.73-2.087c0.537-0.367,1.204-0.571,1.853-0.612c0.707-0.044,1.436,0.127,2.086,0.408
			c0.844,0.365,1.637,0.916,2.241,1.609c0.801,0.92,1.287,2.091,1.705,3.237c0.49,1.341,0.768,2.765,0.914,4.186
			c0.23,2.251,0.125,4.533-0.074,6.787c-0.148,1.702-0.521,3.377-0.838,5.056c-0.345,1.832-0.546,3.709-1.158,5.469
			c-0.424,1.222-1.029,2.384-1.721,3.476c-0.662,1.043-1.424,2.037-2.302,2.906c-0.988,0.979-2.123,1.812-3.295,2.561
			c-0.914,0.583-1.884,1.091-2.892,1.492c-0.969,0.384-1.973,0.721-3.006,0.862c-0.729,0.099-1.652,0.464-2.205-0.021V247.878z"/>
		
			<path id="path855-8_1_" inkscape:export-ydpi="300" inkscape:export-xdpi="300" inkscape:connector-curvature="0" sodipodi:nodetypes="ssssssssssssssssssssssssssssssss" stroke="#000000" stroke-width="0.027" d="
			M124.781,208.301c0.419,0.354,0.425,1.147,0.177,1.637c-0.302,0.596-1.738,7.544-1.781,7.99c-0.043,0.447-1.352,7.061-1.469,8.052
			c-0.185,1.555-0.981,11.084-1.477,12.442c-0.473,1.297-1.771,2.101-2.891,4.349c-0.182,0.366-0.521,2.11,0.23,3.338
			c0.617,1.008,1.28,0.887,0.888,1.437c-0.254,0.356-0.881,0.243-1.305,0.134c-1.152-0.295-4.494-3.135-5.168-3.806
			c-0.82-0.815-3.295-4.056-3.642-4.85c-0.32-0.732-0.803-4.201-0.899-5.137c-0.09-0.871-0.138-5.065,0.037-6.274
			c0.182-1.263,0.447-2.521,0.84-3.734c0.469-1.448,2.309-6.309,2.79-7.274c0.636-1.277,1.543-2.41,2.461-3.502
			c0.638-0.758,3.794-3.152,4.688-3.587c0.594-0.29,1.198-0.573,1.836-0.745C120.823,208.573,124.155,207.772,124.781,208.301
			L124.781,208.301z"/>
	</g>
	<g>
		<path d="M158.843,238.376h3.457v-20.594h-3.457v-5.569h14.978v5.569h-3.457v7.152h12.961v-7.152h-3.457v-5.569h14.978v5.569
			h-3.457v20.594h3.457v5.568h-14.978v-5.568h3.457v-7.393h-12.961v7.393h3.457v5.568h-14.978V238.376z"/>
		<path d="M197.771,228.007c0-9.841,5.568-16.465,15.937-16.465c9.793,0,15.698,5.905,15.698,16.082
			c0,9.841-5.569,16.993-15.985,16.993C203.1,244.616,197.771,237.608,197.771,228.007z M220.909,227.959
			c0-6.913-2.736-9.745-7.249-9.745c-4.656,0-7.393,3.024-7.393,9.841c0,6.913,2.784,9.889,7.297,9.889
			C218.077,237.944,220.909,234.968,220.909,227.959z"/>
		<path d="M238.716,238.376h3.457v-20.114h-4.849v4.896h-6.048v-10.945h29.858v10.945h-6.048v-4.896h-4.849v20.114h3.457v5.568
			h-14.978V238.376z"/>
	</g>
	<g>
		<path d="M278.51,238.376h3.457v-20.594h-3.457v-5.569h15.985c6.576,0,11.329,2.112,11.329,8.113c0,2.977-1.2,5.905-4.464,6.817
			v0.192c4.271,0.768,5.712,4.128,5.712,7.249c0,5.28-4.128,9.361-12.673,9.361h-15.89V238.376z M294.783,224.695
			c1.776,0,2.833-1.056,2.833-3.313s-1.104-3.12-3.553-3.12h-4.272v6.433H294.783z M294.015,237.896
			c3.552,0,4.656-1.536,4.656-3.792c0-2.448-1.392-3.36-3.936-3.36h-4.944v7.153H294.015z"/>
		<path d="M310.333,238.376h3.553v-20.594h-3.553v-5.569h25.346v10.225h-6.048v-4.176h-7.729v6.672h9.073v6.049h-9.073v6.913h8.018
			v-4.657h6.049v10.705h-25.635V238.376z"/>
		<path d="M338.701,238.376h2.448l9.408-26.163h7.393l10.418,26.163h2.496v5.568h-13.25v-5.568h2.977l-1.2-3.168h-10.177
			l-1.057,3.168h3.025v5.568h-12.481V238.376z M357.374,229.64l-3.408-9.649l-2.976,9.649H357.374z"/>
		<path d="M372.973,238.376h3.456v-20.594h-3.456v-5.569h11.281l13.058,19.298v-13.729h-3.457v-5.569h14.594v5.569h-3.457v26.162
			h-7.873l-13.008-19.01v13.441h3.455v5.568h-14.593V238.376z"/>
		<path d="M418.909,233.528c0.048,3.36,2.641,4.417,5.28,4.417c2.496,0,3.937-0.912,3.937-2.4c0-5.041-16.273-2.736-16.273-14.257
			c0-6.336,4.896-9.745,12.24-9.745c7.201,0,11.81,3.36,11.81,8.208v0.384l-7.921,1.632c-0.048-1.296-0.336-3.553-4.08-3.553
			c-2.592,0-3.889,1.056-3.889,2.497c0,5.232,16.273,2.496,16.273,13.969c0,5.76-4.08,9.937-12.193,9.937
			c-8.4,0-13.104-4.416-13.104-9.024v-0.432L418.909,233.528z"/>
	</g>
</g>
</svg>
