<?xml version="1.0" ?><!DOCTYPE svg  PUBLIC '-//W3C//DTD SVG 1.1//EN'  'http://www.w3.org/Graphics/SVG/1.1/DTD/svg11.dtd'><svg enable-background="new 0 0 64 64" height="64px" id="Layer_1" version="1.1" viewBox="0 0 64 64" width="64px" xml:space="preserve" xmlns="http://www.w3.org/2000/svg" xmlns:xlink="http://www.w3.org/1999/xlink"><g><g><g><path d="M35.908,23.019c-0.545-0.826-1.226-0.155-1.226-0.155l0,0c-1.185,1.893-3.627,5.091-10.14,9.94     c-4.93,3.67-6.991,6.8-7.98,8.605c0,0.004-0.557,1.998,1.774,2.795c4.339,1.135,10.005-0.971,14.136-5.683     C36.861,33.518,38.104,27.187,35.908,23.019z" fill="#241F20"/></g><g><path d="M14.394,39.51L14.394,39.51c1.22-2.022,3.857-5.542,8.932-8.913c5.61-3.724,8.083-7.744,9.024-9.676     c0.007-0.025,0.359-1.258-1.121-2.077c-4.443-1.882-10.767,0.155-15.272,5.289c-4.114,4.69-5.473,10.553-3.82,14.702     C13.262,40.84,14.394,39.51,14.394,39.51z" fill="#241F20"/></g></g><path d="M55.07,14.175c-1.15,0-2.242,0.227-3.247,0.631c-0.035,0.014-0.068,0.029-0.103,0.043   c-0.169,0.07-0.328,0.157-0.492,0.236c-0.38,0.218-0.785,0.536-1.443,1.148c0-1.54-0.103-2.812-0.272-3.881   c-0.124-0.656-1.199-5.319-6.67-5.319H7.509c-1.619,0.036-7.423,0.569-7.423,6.403v21.326c0,0.904,0.056,2.195,0.26,3.781v0.019   c0.443,3.619,1.66,8.75,4.798,14.252c0.813,2.419,3.103,4.153,5.797,4.153h28.943c2.567,0,4.763-1.587,5.668-3.822   c0-0.018,0.018-0.018,0.018-0.036c0.077-0.133,0.143-0.263,0.218-0.396C48.188,48.198,49.54,41.745,49.767,40   c0.019,0.108,0.26,0.205,0.507,0.281c0.002-0.004,0.002-0.011,0.004-0.019c0.587,0.195,1.206,0.328,1.858,0.328   c1.734,0,3.306-0.757,4.377-1.957c0.273-0.368,0.533-0.758,0.793-1.107c4.744-6.702,6.071-10.891,6.442-12.792   c0.019-0.076,0.036-0.147,0.036-0.205c0.019-0.09,0.019-0.166,0.036-0.256c0.018-0.166,0.036-0.335,0.054-0.501   c0.022-0.184,0.022-0.274,0.022-0.274c0.018-0.169,0.018-0.335,0.018-0.501C63.914,18.126,59.944,14.175,55.07,14.175z    M46.291,26.592c-0.037,2.152-0.066,4.828-0.045,7.798v1.353c-0.03,0.425-0.062,0.897-0.135,1.413   c-0.337,3.05-1.34,7.495-4.117,12.251c0,0.015-0.013,0.015-0.013,0.028c-0.078,0.188-0.172,0.368-0.271,0.545   c-0.002,0.004,0,0.007-0.002,0.015c-0.009,0.018-0.018,0.028-0.027,0.047c-0.02,0.036-0.041,0.068-0.062,0.104   c-0.173,0.32-0.348,0.602-0.523,0.865c-1.124,1.965-3.7,2.325-4.957,2.379c-5.238,0.015-17.738,0.044-22.263,0.015h-0.003   c-0.137,0-0.267,0-0.389,0c-0.901-0.054-3.182-0.439-4.921-2.964c-0.346-0.609-0.67-1.204-0.97-1.788   C7.34,48.09,7.109,47.625,6.896,47.25C3.019,38.958,3.81,33.539,3.81,33.539s-0.05-7.695-0.011-13.505   c0.002-0.096,0.004-0.18,0.004-0.281c0.007-7.658,4.234-8.71,6.093-8.804c0.126,0.005,0.263,0.007,0.382,0.017h27.897l0.007-0.011   c1.96,0.013,8.108,0.521,8.108,6.474V26.592z M59.97,24.43c0,0,0,0.049-0.011,0.143c-0.009,0.086-0.018,0.175-0.028,0.26   c-0.01,0.048-0.01,0.086-0.019,0.133c0,0.029-0.009,0.068-0.018,0.108c-0.195,0.988-0.884,3.166-3.348,6.646   c-0.067,0.09-0.136,0.188-0.204,0.283c-1.422,2.124-3.039,4.42-4.424,4.247c-0.248-0.028-0.469-0.111-0.674-0.209   c-0.11-0.09-1.46-1.24-1.46-3.482v-3.346c0,0,0-2.077,0-4.846c0-2.322,2.635-3.831,3.488-4.258   c0.043-0.023,0.086-0.047,0.131-0.068c0.089-0.043,0.15-0.068,0.15-0.068l0.007,0.011c0.561-0.244,1.17-0.398,1.822-0.398   c2.533,0,4.595,2.053,4.595,4.586C59.979,24.255,59.979,24.342,59.97,24.43z" fill="#241F20"/></g></svg>